<svg data-v-423bf9ae="" xmlns="http://www.w3.org/2000/svg" viewBox="0 0 366.17146397804964 60" class="font"><!----><!----><defs data-v-423bf9ae=""><linearGradient data-v-423bf9ae="" gradientTransform="rotate(25)" id="2348f316-abc8-4d2a-883e-2652cb5624c7" x1="0%" y1="0%" x2="100%" y2="0%"><stop data-v-423bf9ae="" offset="0%" style="stop-color: rgb(235, 110, 0); stop-opacity: 1;"></stop><stop data-v-423bf9ae="" offset="100%" style="stop-color: rgb(243, 188, 230); stop-opacity: 1;"></stop></linearGradient></defs><g data-v-423bf9ae="" id="4ef9e12d-4a12-44c5-9ca6-9ec025d0c20f" fill="url(#2348f316-abc8-4d2a-883e-2652cb5624c7)" transform="matrix(4.285714577655423,0,0,4.285714577655423,-1.200006977028977,-12.000000374657809)"><path d="M6.55 9.00C6.37 7.59 5.18 6.99 3.56 6.99C1.51 6.99 0.55 7.69 0.55 8.95C0.55 11.19 4.54 10.16 4.54 11.47C4.54 11.80 4.13 11.98 3.65 11.98C3.19 11.98 2.37 11.93 2.37 11.00L0.28 11.00C0.39 12.75 1.78 13.44 3.61 13.44C5.40 13.44 6.65 12.91 6.65 11.45C6.65 8.85 2.66 9.73 2.66 8.86C2.66 8.50 3.09 8.29 3.50 8.29C3.91 8.29 4.42 8.44 4.49 9.00ZM14.22 9.80C14.22 8.12 13.55 6.99 11.90 6.99C11.09 6.99 10.43 7.35 10.01 7.88L10.01 2.80L7.91 2.80L7.91 13.30L10.01 13.30L10.01 10.22C10.01 9.38 10.53 8.68 11.19 8.68C11.84 8.68 12.12 9.07 12.12 9.80L12.12 13.30L14.22 13.30ZM18.87 11.84C17.74 11.84 17.43 11.02 17.43 10.23C17.43 9.46 17.77 8.64 18.87 8.64C19.96 8.64 20.30 9.46 20.30 10.23C20.30 11.02 19.99 11.84 18.87 11.84ZM18.87 7.00C16.94 7.00 15.34 8.29 15.34 10.22C15.34 12.19 16.90 13.43 18.87 13.43C20.83 13.43 22.39 12.19 22.39 10.22C22.39 8.29 20.79 7.00 18.87 7.00ZM25.82 10.22C25.82 9.41 26.45 8.68 27.29 8.68C28.13 8.68 28.76 9.41 28.76 10.22C28.76 11.03 28.13 11.76 27.29 11.76C26.45 11.76 25.82 11.03 25.82 10.22ZM25.82 16.80L25.82 12.56C26.24 13.19 27.13 13.44 27.93 13.44C29.68 13.44 31.00 11.93 31.00 10.22C31.00 8.51 29.68 6.99 27.93 6.99C27.13 6.99 26.36 7.21 25.82 7.88L25.82 7.13L23.72 7.13L23.72 16.80ZM34.43 10.22C34.43 9.41 35.06 8.68 35.90 8.68C36.74 8.68 37.37 9.41 37.37 10.22C37.37 11.03 36.74 11.76 35.90 11.76C35.06 11.76 34.43 11.03 34.43 10.22ZM34.43 16.80L34.43 12.56C34.85 13.19 35.74 13.44 36.54 13.44C38.29 13.44 39.61 11.93 39.61 10.22C39.61 8.51 38.29 6.99 36.54 6.99C35.74 6.99 34.97 7.21 34.43 7.88L34.43 7.13L32.33 7.13L32.33 16.80ZM42.84 9.48C42.84 9.48 42.91 8.33 44.23 8.33C45.50 8.33 45.60 9.48 45.60 9.48ZM47.61 10.08C47.61 8.11 46.06 6.99 44.18 6.99C42.11 6.99 40.59 8.29 40.59 10.22C40.59 12.18 42.06 13.44 44.18 13.44C45.82 13.44 47.14 12.63 47.50 11.00L45.36 11.00C45.35 11.45 44.88 11.94 44.14 11.94C43.32 11.94 42.81 11.19 42.81 10.47L47.60 10.47C47.60 10.35 47.61 10.21 47.61 10.08ZM52.43 8.68C52.75 8.68 53.06 8.78 53.27 9.03L53.30 9.03L53.30 7.13C53.13 7.04 52.85 6.99 52.67 6.99C51.90 6.99 51.37 7.42 51.04 7.88L51.04 7.13L48.94 7.13L48.94 13.30L51.04 13.30L51.04 10.22C51.04 9.48 51.65 8.68 52.43 8.68ZM56.73 2.80C55.61 2.80 54.74 3.50 54.74 5.03L54.74 7.13L53.86 7.13L53.86 8.75L54.74 8.75L54.74 13.30L56.84 13.30L56.84 8.75L58.28 8.75L58.28 7.13L56.84 7.13L56.84 5.28C56.84 4.68 56.95 4.44 57.39 4.44L58.28 4.44L58.28 2.80ZM59.22 10.64C59.22 12.31 59.89 13.44 61.54 13.44C62.36 13.44 63.01 13.08 63.43 12.54L63.43 13.30L65.53 13.30L65.53 7.13L63.43 7.13L63.43 10.22C63.43 11.05 62.92 11.76 62.26 11.76C61.60 11.76 61.32 11.35 61.32 10.64L61.32 7.13L59.22 7.13ZM73.44 10.16C73.44 9.46 73.77 8.68 74.58 8.68C75.28 8.68 75.47 9.28 75.47 9.88L75.47 13.30L77.57 13.30L77.57 9.88C77.57 8.29 76.80 6.99 75.19 6.99C74.23 6.99 73.54 7.27 72.94 8.04C72.51 7.34 71.81 6.99 71.02 6.99C70.34 6.99 69.73 7.35 69.31 7.88L69.31 7.13L67.21 7.13L67.21 13.30L69.31 13.30L69.31 10.22C69.31 9.60 69.73 8.68 70.45 8.68C71.15 8.68 71.34 9.28 71.34 9.88L71.34 13.30L73.44 13.30ZM80.95 9.48C80.95 9.48 81.02 8.33 82.33 8.33C83.61 8.33 83.71 9.48 83.71 9.48ZM85.72 10.08C85.72 8.11 84.17 6.99 82.29 6.99C80.22 6.99 78.69 8.29 78.69 10.22C78.69 12.18 80.16 13.44 82.29 13.44C83.93 13.44 85.25 12.63 85.61 11.00L83.47 11.00C83.45 11.45 82.99 11.94 82.25 11.94C81.42 11.94 80.92 11.19 80.92 10.47L85.71 10.47C85.71 10.35 85.72 10.21 85.72 10.08Z"></path></g><!----><!----></svg>